<mxfile host="app.diagrams.net" agent="Mozilla/5.0 (Windows NT 10.0; Win64; x64) AppleWebKit/537.36 (KHTML, like Gecko) Chrome/133.0.0.0 Safari/537.36 Edg/133.0.0.0" version="26.1.0">
  <diagram name="Página-1" id="RvpnkpR9A4oQon7Z_9J0">
    <mxGraphModel dx="1042" dy="1700" grid="1" gridSize="10" guides="1" tooltips="1" connect="1" arrows="1" fold="1" page="1" pageScale="1" pageWidth="827" pageHeight="1169" math="0" shadow="0">
      <root>
        <mxCell id="0" />
        <mxCell id="1" parent="0" />
        <mxCell id="WNvSQ2MAyzaUWHc4iCk9-1" value="" style="rounded=0;whiteSpace=wrap;html=1;" vertex="1" parent="1">
          <mxGeometry x="50" y="120" width="120" height="60" as="geometry" />
        </mxCell>
        <mxCell id="WNvSQ2MAyzaUWHc4iCk9-3" value="Funcionário" style="text;html=1;align=center;verticalAlign=middle;whiteSpace=wrap;rounded=0;" vertex="1" parent="1">
          <mxGeometry x="80" y="135" width="60" height="30" as="geometry" />
        </mxCell>
        <mxCell id="WNvSQ2MAyzaUWHc4iCk9-22" value="" style="endArrow=oval;html=1;rounded=0;endFill=1;align=center;" edge="1" parent="1" target="WNvSQ2MAyzaUWHc4iCk9-32">
          <mxGeometry width="50" height="50" relative="1" as="geometry">
            <mxPoint x="100" as="sourcePoint" />
            <mxPoint x="140" as="targetPoint" />
          </mxGeometry>
        </mxCell>
        <mxCell id="WNvSQ2MAyzaUWHc4iCk9-23" value="" style="endArrow=oval;html=1;rounded=0;endFill=0;" edge="1" parent="1" target="WNvSQ2MAyzaUWHc4iCk9-34">
          <mxGeometry width="50" height="50" relative="1" as="geometry">
            <mxPoint x="100" y="20" as="sourcePoint" />
            <mxPoint x="140" y="20" as="targetPoint" />
          </mxGeometry>
        </mxCell>
        <mxCell id="WNvSQ2MAyzaUWHc4iCk9-24" value="" style="endArrow=oval;html=1;rounded=0;endFill=0;" edge="1" parent="1">
          <mxGeometry width="50" height="50" relative="1" as="geometry">
            <mxPoint x="100" y="40" as="sourcePoint" />
            <mxPoint x="140" y="40" as="targetPoint" />
          </mxGeometry>
        </mxCell>
        <mxCell id="WNvSQ2MAyzaUWHc4iCk9-25" value="" style="endArrow=oval;html=1;rounded=0;endFill=0;" edge="1" parent="1">
          <mxGeometry width="50" height="50" relative="1" as="geometry">
            <mxPoint x="100" y="60" as="sourcePoint" />
            <mxPoint x="140" y="60" as="targetPoint" />
          </mxGeometry>
        </mxCell>
        <mxCell id="WNvSQ2MAyzaUWHc4iCk9-26" value="" style="endArrow=oval;html=1;rounded=0;endFill=0;" edge="1" parent="1">
          <mxGeometry width="50" height="50" relative="1" as="geometry">
            <mxPoint x="100" y="80" as="sourcePoint" />
            <mxPoint x="140" y="80" as="targetPoint" />
          </mxGeometry>
        </mxCell>
        <mxCell id="WNvSQ2MAyzaUWHc4iCk9-32" value="&amp;nbsp;cpf_funcionario" style="text;html=1;align=left;verticalAlign=middle;whiteSpace=wrap;rounded=0;" vertex="1" parent="1">
          <mxGeometry x="140" y="-15" width="110" height="30" as="geometry" />
        </mxCell>
        <mxCell id="WNvSQ2MAyzaUWHc4iCk9-34" value="&amp;nbsp;Nome" style="text;html=1;align=left;verticalAlign=middle;whiteSpace=wrap;rounded=0;" vertex="1" parent="1">
          <mxGeometry x="140" y="10" width="60" height="20" as="geometry" />
        </mxCell>
        <mxCell id="WNvSQ2MAyzaUWHc4iCk9-35" value="&amp;nbsp;Telefone" style="text;html=1;align=left;verticalAlign=middle;whiteSpace=wrap;rounded=0;" vertex="1" parent="1">
          <mxGeometry x="140" y="30" width="60" height="20" as="geometry" />
        </mxCell>
        <mxCell id="WNvSQ2MAyzaUWHc4iCk9-36" value="&amp;nbsp;E-mail" style="text;html=1;align=left;verticalAlign=middle;whiteSpace=wrap;rounded=0;" vertex="1" parent="1">
          <mxGeometry x="140" y="50" width="60" height="20" as="geometry" />
        </mxCell>
        <mxCell id="WNvSQ2MAyzaUWHc4iCk9-37" value="&amp;nbsp;Login" style="text;html=1;align=left;verticalAlign=middle;whiteSpace=wrap;rounded=0;" vertex="1" parent="1">
          <mxGeometry x="140" y="70" width="60" height="20" as="geometry" />
        </mxCell>
        <mxCell id="WNvSQ2MAyzaUWHc4iCk9-38" value="" style="endArrow=none;html=1;exitX=0.417;exitY=0;exitDx=0;exitDy=0;exitPerimeter=0;" edge="1" parent="1" source="WNvSQ2MAyzaUWHc4iCk9-1">
          <mxGeometry width="50" height="50" relative="1" as="geometry">
            <mxPoint x="50" y="50" as="sourcePoint" />
            <mxPoint x="100" as="targetPoint" />
          </mxGeometry>
        </mxCell>
        <mxCell id="WNvSQ2MAyzaUWHc4iCk9-39" value="" style="endArrow=oval;html=1;rounded=0;endFill=0;" edge="1" parent="1">
          <mxGeometry width="50" height="50" relative="1" as="geometry">
            <mxPoint x="100" y="100" as="sourcePoint" />
            <mxPoint x="140" y="100" as="targetPoint" />
          </mxGeometry>
        </mxCell>
        <mxCell id="WNvSQ2MAyzaUWHc4iCk9-40" value="&amp;nbsp;Senha" style="text;html=1;align=left;verticalAlign=middle;whiteSpace=wrap;rounded=0;" vertex="1" parent="1">
          <mxGeometry x="140" y="90" width="60" height="20" as="geometry" />
        </mxCell>
        <mxCell id="WNvSQ2MAyzaUWHc4iCk9-41" value="" style="rhombus;whiteSpace=wrap;html=1;" vertex="1" parent="1">
          <mxGeometry x="240" y="110" width="110" height="80" as="geometry" />
        </mxCell>
        <mxCell id="WNvSQ2MAyzaUWHc4iCk9-43" value="" style="endArrow=none;html=1;entryX=0;entryY=0.5;entryDx=0;entryDy=0;exitX=1;exitY=0.5;exitDx=0;exitDy=0;" edge="1" parent="1" source="WNvSQ2MAyzaUWHc4iCk9-41" target="WNvSQ2MAyzaUWHc4iCk9-44">
          <mxGeometry width="50" height="50" relative="1" as="geometry">
            <mxPoint x="330" y="150" as="sourcePoint" />
            <mxPoint x="390" y="110" as="targetPoint" />
          </mxGeometry>
        </mxCell>
        <mxCell id="WNvSQ2MAyzaUWHc4iCk9-44" value="" style="rounded=0;whiteSpace=wrap;html=1;" vertex="1" parent="1">
          <mxGeometry x="450" y="120" width="120" height="60" as="geometry" />
        </mxCell>
        <mxCell id="WNvSQ2MAyzaUWHc4iCk9-45" value="" style="endArrow=none;html=1;entryX=0;entryY=0.5;entryDx=0;entryDy=0;exitX=1;exitY=0.5;exitDx=0;exitDy=0;" edge="1" parent="1" source="WNvSQ2MAyzaUWHc4iCk9-1" target="WNvSQ2MAyzaUWHc4iCk9-41">
          <mxGeometry width="50" height="50" relative="1" as="geometry">
            <mxPoint x="180" y="160" as="sourcePoint" />
            <mxPoint x="230" y="110" as="targetPoint" />
          </mxGeometry>
        </mxCell>
        <mxCell id="WNvSQ2MAyzaUWHc4iCk9-47" value="Trabalha" style="text;html=1;align=center;verticalAlign=middle;whiteSpace=wrap;rounded=0;" vertex="1" parent="1">
          <mxGeometry x="265" y="135" width="60" height="30" as="geometry" />
        </mxCell>
        <mxCell id="WNvSQ2MAyzaUWHc4iCk9-48" value="Hotel" style="text;html=1;align=center;verticalAlign=middle;whiteSpace=wrap;rounded=0;" vertex="1" parent="1">
          <mxGeometry x="480" y="135" width="60" height="30" as="geometry" />
        </mxCell>
        <mxCell id="WNvSQ2MAyzaUWHc4iCk9-67" value="" style="endArrow=none;html=1;" edge="1" parent="1">
          <mxGeometry width="50" height="50" relative="1" as="geometry">
            <mxPoint x="500" y="120" as="sourcePoint" />
            <mxPoint x="500" as="targetPoint" />
          </mxGeometry>
        </mxCell>
        <mxCell id="WNvSQ2MAyzaUWHc4iCk9-69" value="" style="endArrow=oval;html=1;rounded=0;endFill=1;align=center;" edge="1" parent="1">
          <mxGeometry width="50" height="50" relative="1" as="geometry">
            <mxPoint x="500" as="sourcePoint" />
            <mxPoint x="540" as="targetPoint" />
          </mxGeometry>
        </mxCell>
        <mxCell id="WNvSQ2MAyzaUWHc4iCk9-70" value="" style="endArrow=oval;html=1;rounded=0;endFill=0;" edge="1" parent="1">
          <mxGeometry width="50" height="50" relative="1" as="geometry">
            <mxPoint x="500" y="19.66" as="sourcePoint" />
            <mxPoint x="540" y="19.66" as="targetPoint" />
          </mxGeometry>
        </mxCell>
        <mxCell id="WNvSQ2MAyzaUWHc4iCk9-71" value="" style="endArrow=oval;html=1;rounded=0;endFill=0;" edge="1" parent="1">
          <mxGeometry width="50" height="50" relative="1" as="geometry">
            <mxPoint x="500" y="39.66" as="sourcePoint" />
            <mxPoint x="540" y="39.66" as="targetPoint" />
          </mxGeometry>
        </mxCell>
        <mxCell id="WNvSQ2MAyzaUWHc4iCk9-72" value="" style="endArrow=oval;html=1;rounded=0;endFill=0;" edge="1" parent="1">
          <mxGeometry width="50" height="50" relative="1" as="geometry">
            <mxPoint x="500" y="59.66" as="sourcePoint" />
            <mxPoint x="540" y="59.66" as="targetPoint" />
          </mxGeometry>
        </mxCell>
        <mxCell id="WNvSQ2MAyzaUWHc4iCk9-73" value="" style="endArrow=oval;html=1;rounded=0;endFill=0;" edge="1" parent="1">
          <mxGeometry width="50" height="50" relative="1" as="geometry">
            <mxPoint x="500" y="79.66" as="sourcePoint" />
            <mxPoint x="540" y="79.66" as="targetPoint" />
          </mxGeometry>
        </mxCell>
        <mxCell id="WNvSQ2MAyzaUWHc4iCk9-74" value="" style="endArrow=oval;html=1;rounded=0;endFill=0;" edge="1" parent="1">
          <mxGeometry width="50" height="50" relative="1" as="geometry">
            <mxPoint x="500" y="99.66" as="sourcePoint" />
            <mxPoint x="540" y="99.66" as="targetPoint" />
          </mxGeometry>
        </mxCell>
        <mxCell id="WNvSQ2MAyzaUWHc4iCk9-76" value="&amp;nbsp;id_hotel" style="text;html=1;align=left;verticalAlign=middle;whiteSpace=wrap;rounded=0;" vertex="1" parent="1">
          <mxGeometry x="540" y="-15" width="60" height="30" as="geometry" />
        </mxCell>
        <mxCell id="WNvSQ2MAyzaUWHc4iCk9-77" value="&amp;nbsp;Nome" style="text;html=1;align=left;verticalAlign=middle;whiteSpace=wrap;rounded=0;" vertex="1" parent="1">
          <mxGeometry x="540" y="5" width="60" height="30" as="geometry" />
        </mxCell>
        <mxCell id="WNvSQ2MAyzaUWHc4iCk9-79" value="&amp;nbsp;Categoria" style="text;html=1;align=left;verticalAlign=middle;whiteSpace=wrap;rounded=0;" vertex="1" parent="1">
          <mxGeometry x="540" y="25" width="60" height="30" as="geometry" />
        </mxCell>
        <mxCell id="WNvSQ2MAyzaUWHc4iCk9-80" value="&amp;nbsp;Telefone" style="text;html=1;align=left;verticalAlign=middle;whiteSpace=wrap;rounded=0;" vertex="1" parent="1">
          <mxGeometry x="540" y="45" width="60" height="30" as="geometry" />
        </mxCell>
        <mxCell id="WNvSQ2MAyzaUWHc4iCk9-81" value="&amp;nbsp;E-mail" style="text;html=1;align=left;verticalAlign=middle;whiteSpace=wrap;rounded=0;" vertex="1" parent="1">
          <mxGeometry x="540" y="65" width="60" height="30" as="geometry" />
        </mxCell>
        <mxCell id="WNvSQ2MAyzaUWHc4iCk9-82" value="&amp;nbsp;Endereço" style="text;html=1;align=left;verticalAlign=middle;whiteSpace=wrap;rounded=0;" vertex="1" parent="1">
          <mxGeometry x="540" y="85" width="60" height="30" as="geometry" />
        </mxCell>
        <mxCell id="WNvSQ2MAyzaUWHc4iCk9-84" value="" style="rounded=0;whiteSpace=wrap;html=1;" vertex="1" parent="1">
          <mxGeometry x="560" y="300" width="120" height="60" as="geometry" />
        </mxCell>
        <mxCell id="WNvSQ2MAyzaUWHc4iCk9-85" value="Quarto" style="text;html=1;align=center;verticalAlign=middle;whiteSpace=wrap;rounded=0;" vertex="1" parent="1">
          <mxGeometry x="590" y="315" width="60" height="30" as="geometry" />
        </mxCell>
        <mxCell id="WNvSQ2MAyzaUWHc4iCk9-87" value="" style="rounded=0;whiteSpace=wrap;html=1;" vertex="1" parent="1">
          <mxGeometry x="270" y="310" width="120" height="60" as="geometry" />
        </mxCell>
        <mxCell id="WNvSQ2MAyzaUWHc4iCk9-88" value="Hospede" style="text;html=1;align=center;verticalAlign=middle;whiteSpace=wrap;rounded=0;" vertex="1" parent="1">
          <mxGeometry x="300" y="325" width="60" height="30" as="geometry" />
        </mxCell>
        <mxCell id="WNvSQ2MAyzaUWHc4iCk9-89" value="" style="rounded=0;whiteSpace=wrap;html=1;" vertex="1" parent="1">
          <mxGeometry x="414" y="420" width="120" height="60" as="geometry" />
        </mxCell>
        <mxCell id="WNvSQ2MAyzaUWHc4iCk9-90" value="Reserva" style="text;html=1;align=center;verticalAlign=middle;whiteSpace=wrap;rounded=0;" vertex="1" parent="1">
          <mxGeometry x="444" y="435" width="60" height="30" as="geometry" />
        </mxCell>
        <mxCell id="WNvSQ2MAyzaUWHc4iCk9-93" value="" style="rounded=0;whiteSpace=wrap;html=1;" vertex="1" parent="1">
          <mxGeometry x="50" y="300" width="120" height="60" as="geometry" />
        </mxCell>
        <mxCell id="WNvSQ2MAyzaUWHc4iCk9-94" value="Pagamento" style="text;html=1;align=center;verticalAlign=middle;whiteSpace=wrap;rounded=0;" vertex="1" parent="1">
          <mxGeometry x="70" y="315" width="60" height="30" as="geometry" />
        </mxCell>
        <mxCell id="WNvSQ2MAyzaUWHc4iCk9-95" value="" style="endArrow=oval;html=1;rounded=0;endFill=1;align=center;" edge="1" parent="1">
          <mxGeometry width="50" height="50" relative="1" as="geometry">
            <mxPoint x="280" y="495" as="sourcePoint" />
            <mxPoint x="325" y="495" as="targetPoint" />
          </mxGeometry>
        </mxCell>
        <mxCell id="WNvSQ2MAyzaUWHc4iCk9-96" value="" style="endArrow=oval;html=1;rounded=0;endFill=1;align=center;" edge="1" parent="1">
          <mxGeometry width="50" height="50" relative="1" as="geometry">
            <mxPoint x="460" y="600" as="sourcePoint" />
            <mxPoint x="500" y="600" as="targetPoint" />
          </mxGeometry>
        </mxCell>
        <mxCell id="WNvSQ2MAyzaUWHc4iCk9-97" value="" style="endArrow=oval;html=1;rounded=0;endFill=1;align=center;" edge="1" parent="1">
          <mxGeometry width="50" height="50" relative="1" as="geometry">
            <mxPoint x="80" y="510" as="sourcePoint" />
            <mxPoint x="120" y="510" as="targetPoint" />
          </mxGeometry>
        </mxCell>
        <mxCell id="WNvSQ2MAyzaUWHc4iCk9-98" value="" style="endArrow=oval;html=1;rounded=0;endFill=1;align=center;" edge="1" parent="1">
          <mxGeometry width="50" height="50" relative="1" as="geometry">
            <mxPoint x="620" y="465" as="sourcePoint" />
            <mxPoint x="660" y="465" as="targetPoint" />
          </mxGeometry>
        </mxCell>
        <mxCell id="WNvSQ2MAyzaUWHc4iCk9-99" value="" style="endArrow=oval;html=1;rounded=0;endFill=0;" edge="1" parent="1">
          <mxGeometry width="50" height="50" relative="1" as="geometry">
            <mxPoint x="80" y="495" as="sourcePoint" />
            <mxPoint x="120" y="495" as="targetPoint" />
          </mxGeometry>
        </mxCell>
        <mxCell id="WNvSQ2MAyzaUWHc4iCk9-100" value="" style="endArrow=oval;html=1;rounded=0;endFill=0;" edge="1" parent="1">
          <mxGeometry width="50" height="50" relative="1" as="geometry">
            <mxPoint x="80" y="479.17" as="sourcePoint" />
            <mxPoint x="120" y="479.17" as="targetPoint" />
          </mxGeometry>
        </mxCell>
        <mxCell id="WNvSQ2MAyzaUWHc4iCk9-101" value="" style="endArrow=oval;html=1;rounded=0;endFill=0;" edge="1" parent="1">
          <mxGeometry width="50" height="50" relative="1" as="geometry">
            <mxPoint x="80" y="464.16999999999996" as="sourcePoint" />
            <mxPoint x="120" y="464.16999999999996" as="targetPoint" />
          </mxGeometry>
        </mxCell>
        <mxCell id="WNvSQ2MAyzaUWHc4iCk9-102" value="" style="endArrow=oval;html=1;rounded=0;endFill=0;" edge="1" parent="1">
          <mxGeometry width="50" height="50" relative="1" as="geometry">
            <mxPoint x="620" y="449.65999999999997" as="sourcePoint" />
            <mxPoint x="660" y="449.65999999999997" as="targetPoint" />
          </mxGeometry>
        </mxCell>
        <mxCell id="WNvSQ2MAyzaUWHc4iCk9-103" value="&amp;nbsp;id_quarto" style="text;html=1;align=left;verticalAlign=middle;whiteSpace=wrap;rounded=0;" vertex="1" parent="1">
          <mxGeometry x="660" y="450" width="60" height="30" as="geometry" />
        </mxCell>
        <mxCell id="WNvSQ2MAyzaUWHc4iCk9-104" value="&amp;nbsp;Num_leitos" style="text;html=1;align=left;verticalAlign=middle;whiteSpace=wrap;rounded=0;" vertex="1" parent="1">
          <mxGeometry x="660" y="435" width="60" height="30" as="geometry" />
        </mxCell>
        <mxCell id="WNvSQ2MAyzaUWHc4iCk9-105" value="" style="endArrow=oval;html=1;rounded=0;endFill=0;" edge="1" parent="1">
          <mxGeometry width="50" height="50" relative="1" as="geometry">
            <mxPoint x="620" y="434.30999999999995" as="sourcePoint" />
            <mxPoint x="660" y="434.30999999999995" as="targetPoint" />
          </mxGeometry>
        </mxCell>
        <mxCell id="WNvSQ2MAyzaUWHc4iCk9-106" value="&amp;nbsp;tipo" style="text;html=1;align=left;verticalAlign=middle;whiteSpace=wrap;rounded=0;" vertex="1" parent="1">
          <mxGeometry x="660" y="420" width="60" height="30" as="geometry" />
        </mxCell>
        <mxCell id="WNvSQ2MAyzaUWHc4iCk9-107" value="" style="endArrow=oval;html=1;rounded=0;endFill=0;" edge="1" parent="1">
          <mxGeometry width="50" height="50" relative="1" as="geometry">
            <mxPoint x="620" y="419.99999999999994" as="sourcePoint" />
            <mxPoint x="660" y="419.99999999999994" as="targetPoint" />
          </mxGeometry>
        </mxCell>
        <mxCell id="WNvSQ2MAyzaUWHc4iCk9-108" value="&amp;nbsp; preco_diaria" style="text;html=1;align=left;verticalAlign=middle;whiteSpace=wrap;rounded=0;" vertex="1" parent="1">
          <mxGeometry x="660" y="405" width="80" height="30" as="geometry" />
        </mxCell>
        <mxCell id="WNvSQ2MAyzaUWHc4iCk9-109" value="" style="endArrow=oval;html=1;rounded=0;endFill=0;" edge="1" parent="1">
          <mxGeometry width="50" height="50" relative="1" as="geometry">
            <mxPoint x="620" y="404.99999999999994" as="sourcePoint" />
            <mxPoint x="660" y="404.99999999999994" as="targetPoint" />
          </mxGeometry>
        </mxCell>
        <mxCell id="WNvSQ2MAyzaUWHc4iCk9-110" value="&amp;nbsp;status" style="text;html=1;align=left;verticalAlign=middle;whiteSpace=wrap;rounded=0;" vertex="1" parent="1">
          <mxGeometry x="660" y="390" width="80" height="30" as="geometry" />
        </mxCell>
        <mxCell id="WNvSQ2MAyzaUWHc4iCk9-111" value="" style="endArrow=none;html=1;entryX=0.5;entryY=1;entryDx=0;entryDy=0;" edge="1" parent="1" target="WNvSQ2MAyzaUWHc4iCk9-84">
          <mxGeometry width="50" height="50" relative="1" as="geometry">
            <mxPoint x="619.66" y="465" as="sourcePoint" />
            <mxPoint x="619.66" y="365" as="targetPoint" />
          </mxGeometry>
        </mxCell>
        <mxCell id="WNvSQ2MAyzaUWHc4iCk9-112" value="" style="rhombus;whiteSpace=wrap;html=1;rotation=90;" vertex="1" parent="1">
          <mxGeometry x="440" y="220" width="110" height="80" as="geometry" />
        </mxCell>
        <mxCell id="WNvSQ2MAyzaUWHc4iCk9-113" value="Possui" style="text;html=1;align=center;verticalAlign=middle;whiteSpace=wrap;rounded=0;" vertex="1" parent="1">
          <mxGeometry x="465" y="245" width="60" height="30" as="geometry" />
        </mxCell>
        <mxCell id="WNvSQ2MAyzaUWHc4iCk9-114" value="" style="endArrow=none;html=1;exitX=0;exitY=0.5;exitDx=0;exitDy=0;entryX=0.378;entryY=1.017;entryDx=0;entryDy=0;entryPerimeter=0;" edge="1" parent="1" source="WNvSQ2MAyzaUWHc4iCk9-112" target="WNvSQ2MAyzaUWHc4iCk9-44">
          <mxGeometry width="50" height="50" relative="1" as="geometry">
            <mxPoint x="430" y="250" as="sourcePoint" />
            <mxPoint x="480" y="200" as="targetPoint" />
          </mxGeometry>
        </mxCell>
        <mxCell id="WNvSQ2MAyzaUWHc4iCk9-115" value="" style="endArrow=none;html=1;" edge="1" parent="1">
          <mxGeometry width="50" height="50" relative="1" as="geometry">
            <mxPoint x="500" y="340" as="sourcePoint" />
            <mxPoint x="494.66" y="315" as="targetPoint" />
          </mxGeometry>
        </mxCell>
        <mxCell id="WNvSQ2MAyzaUWHc4iCk9-118" value="" style="endArrow=none;html=1;entryX=0;entryY=0.667;entryDx=0;entryDy=0;entryPerimeter=0;" edge="1" parent="1" target="WNvSQ2MAyzaUWHc4iCk9-84">
          <mxGeometry width="50" height="50" relative="1" as="geometry">
            <mxPoint x="500" y="340" as="sourcePoint" />
            <mxPoint x="520" y="340" as="targetPoint" />
          </mxGeometry>
        </mxCell>
        <mxCell id="WNvSQ2MAyzaUWHc4iCk9-121" value="" style="endArrow=oval;html=1;rounded=0;endFill=0;" edge="1" parent="1">
          <mxGeometry width="50" height="50" relative="1" as="geometry">
            <mxPoint x="280" y="480" as="sourcePoint" />
            <mxPoint x="325" y="480" as="targetPoint" />
          </mxGeometry>
        </mxCell>
        <mxCell id="WNvSQ2MAyzaUWHc4iCk9-123" value="&amp;nbsp;cpf_hospede" style="text;html=1;align=left;verticalAlign=middle;whiteSpace=wrap;rounded=0;" vertex="1" parent="1">
          <mxGeometry x="325" y="480" width="60" height="30" as="geometry" />
        </mxCell>
        <mxCell id="WNvSQ2MAyzaUWHc4iCk9-124" value="&amp;nbsp;nome" style="text;html=1;align=left;verticalAlign=middle;whiteSpace=wrap;rounded=0;" vertex="1" parent="1">
          <mxGeometry x="325" y="465" width="60" height="30" as="geometry" />
        </mxCell>
        <mxCell id="WNvSQ2MAyzaUWHc4iCk9-125" value="" style="endArrow=oval;html=1;rounded=0;endFill=0;" edge="1" parent="1">
          <mxGeometry width="50" height="50" relative="1" as="geometry">
            <mxPoint x="280" y="465" as="sourcePoint" />
            <mxPoint x="325" y="465" as="targetPoint" />
          </mxGeometry>
        </mxCell>
        <mxCell id="WNvSQ2MAyzaUWHc4iCk9-126" value="&amp;nbsp;telefone" style="text;html=1;align=left;verticalAlign=middle;whiteSpace=wrap;rounded=0;" vertex="1" parent="1">
          <mxGeometry x="325" y="450" width="60" height="30" as="geometry" />
        </mxCell>
        <mxCell id="WNvSQ2MAyzaUWHc4iCk9-127" value="&amp;nbsp;e-mail" style="text;html=1;align=left;verticalAlign=middle;whiteSpace=wrap;rounded=0;" vertex="1" parent="1">
          <mxGeometry x="325" y="435" width="60" height="30" as="geometry" />
        </mxCell>
        <mxCell id="WNvSQ2MAyzaUWHc4iCk9-128" value="" style="endArrow=oval;html=1;rounded=0;endFill=0;" edge="1" parent="1">
          <mxGeometry width="50" height="50" relative="1" as="geometry">
            <mxPoint x="280" y="450" as="sourcePoint" />
            <mxPoint x="325" y="450" as="targetPoint" />
          </mxGeometry>
        </mxCell>
        <mxCell id="WNvSQ2MAyzaUWHc4iCk9-129" value="" style="endArrow=oval;html=1;rounded=0;endFill=0;" edge="1" parent="1">
          <mxGeometry width="50" height="50" relative="1" as="geometry">
            <mxPoint x="280" y="435" as="sourcePoint" />
            <mxPoint x="325" y="435" as="targetPoint" />
          </mxGeometry>
        </mxCell>
        <mxCell id="WNvSQ2MAyzaUWHc4iCk9-130" value="&amp;nbsp;endereco" style="text;html=1;align=left;verticalAlign=middle;whiteSpace=wrap;rounded=0;" vertex="1" parent="1">
          <mxGeometry x="325" y="420" width="60" height="30" as="geometry" />
        </mxCell>
        <mxCell id="WNvSQ2MAyzaUWHc4iCk9-131" value="" style="endArrow=none;html=1;" edge="1" parent="1">
          <mxGeometry width="50" height="50" relative="1" as="geometry">
            <mxPoint x="280" y="495" as="sourcePoint" />
            <mxPoint x="280" y="370" as="targetPoint" />
          </mxGeometry>
        </mxCell>
        <mxCell id="WNvSQ2MAyzaUWHc4iCk9-132" value="&amp;nbsp;id_reserva" style="text;html=1;align=left;verticalAlign=middle;whiteSpace=wrap;rounded=0;" vertex="1" parent="1">
          <mxGeometry x="504" y="585" width="60" height="30" as="geometry" />
        </mxCell>
        <mxCell id="WNvSQ2MAyzaUWHc4iCk9-133" value="" style="endArrow=oval;html=1;rounded=0;endFill=0;" edge="1" parent="1">
          <mxGeometry width="50" height="50" relative="1" as="geometry">
            <mxPoint x="460" y="585" as="sourcePoint" />
            <mxPoint x="500" y="585" as="targetPoint" />
          </mxGeometry>
        </mxCell>
        <mxCell id="WNvSQ2MAyzaUWHc4iCk9-134" value="&amp;nbsp;data_entrada" style="text;html=1;align=left;verticalAlign=middle;whiteSpace=wrap;rounded=0;" vertex="1" parent="1">
          <mxGeometry x="500" y="570" width="60" height="30" as="geometry" />
        </mxCell>
        <mxCell id="WNvSQ2MAyzaUWHc4iCk9-135" value="" style="endArrow=oval;html=1;rounded=0;endFill=0;" edge="1" parent="1">
          <mxGeometry width="50" height="50" relative="1" as="geometry">
            <mxPoint x="460" y="570" as="sourcePoint" />
            <mxPoint x="500" y="569.72" as="targetPoint" />
          </mxGeometry>
        </mxCell>
        <mxCell id="WNvSQ2MAyzaUWHc4iCk9-136" value="&amp;nbsp;data_saida" style="text;html=1;align=left;verticalAlign=middle;whiteSpace=wrap;rounded=0;" vertex="1" parent="1">
          <mxGeometry x="500" y="555" width="60" height="30" as="geometry" />
        </mxCell>
        <mxCell id="WNvSQ2MAyzaUWHc4iCk9-137" value="" style="endArrow=oval;html=1;rounded=0;endFill=0;" edge="1" parent="1">
          <mxGeometry width="50" height="50" relative="1" as="geometry">
            <mxPoint x="460" y="555" as="sourcePoint" />
            <mxPoint x="500" y="555" as="targetPoint" />
          </mxGeometry>
        </mxCell>
        <mxCell id="WNvSQ2MAyzaUWHc4iCk9-138" value="&amp;nbsp;status" style="text;html=1;align=left;verticalAlign=middle;whiteSpace=wrap;rounded=0;" vertex="1" parent="1">
          <mxGeometry x="500" y="540" width="60" height="30" as="geometry" />
        </mxCell>
        <mxCell id="WNvSQ2MAyzaUWHc4iCk9-139" value="" style="endArrow=none;html=1;entryX=0.388;entryY=1.006;entryDx=0;entryDy=0;entryPerimeter=0;" edge="1" parent="1" target="WNvSQ2MAyzaUWHc4iCk9-89">
          <mxGeometry width="50" height="50" relative="1" as="geometry">
            <mxPoint x="460" y="600" as="sourcePoint" />
            <mxPoint x="460" y="540" as="targetPoint" />
          </mxGeometry>
        </mxCell>
        <mxCell id="WNvSQ2MAyzaUWHc4iCk9-140" value="&amp;nbsp;id_pagamento" style="text;html=1;align=left;verticalAlign=middle;whiteSpace=wrap;rounded=0;" vertex="1" parent="1">
          <mxGeometry x="120" y="495" width="60" height="30" as="geometry" />
        </mxCell>
        <mxCell id="WNvSQ2MAyzaUWHc4iCk9-141" value="&amp;nbsp;forma_pagamento" style="text;html=1;align=left;verticalAlign=middle;whiteSpace=wrap;rounded=0;" vertex="1" parent="1">
          <mxGeometry x="120" y="480" width="60" height="30" as="geometry" />
        </mxCell>
        <mxCell id="WNvSQ2MAyzaUWHc4iCk9-142" value="&amp;nbsp;data_pagamento" style="text;html=1;align=left;verticalAlign=middle;whiteSpace=wrap;rounded=0;" vertex="1" parent="1">
          <mxGeometry x="120" y="465" width="60" height="30" as="geometry" />
        </mxCell>
        <mxCell id="WNvSQ2MAyzaUWHc4iCk9-143" value="&amp;nbsp;valor_total" style="text;html=1;align=left;verticalAlign=middle;whiteSpace=wrap;rounded=0;" vertex="1" parent="1">
          <mxGeometry x="120" y="450" width="60" height="30" as="geometry" />
        </mxCell>
        <mxCell id="WNvSQ2MAyzaUWHc4iCk9-144" value="" style="endArrow=oval;html=1;rounded=0;endFill=0;" edge="1" parent="1">
          <mxGeometry width="50" height="50" relative="1" as="geometry">
            <mxPoint x="80" y="449.99999999999994" as="sourcePoint" />
            <mxPoint x="120" y="449.99999999999994" as="targetPoint" />
          </mxGeometry>
        </mxCell>
        <mxCell id="WNvSQ2MAyzaUWHc4iCk9-145" value="&amp;nbsp;status" style="text;html=1;align=left;verticalAlign=middle;whiteSpace=wrap;rounded=0;" vertex="1" parent="1">
          <mxGeometry x="120" y="435" width="60" height="30" as="geometry" />
        </mxCell>
        <mxCell id="WNvSQ2MAyzaUWHc4iCk9-146" value="" style="endArrow=none;html=1;" edge="1" parent="1">
          <mxGeometry width="50" height="50" relative="1" as="geometry">
            <mxPoint x="80" y="510" as="sourcePoint" />
            <mxPoint x="80" y="360" as="targetPoint" />
          </mxGeometry>
        </mxCell>
        <mxCell id="WNvSQ2MAyzaUWHc4iCk9-147" value="" style="rhombus;whiteSpace=wrap;html=1;" vertex="1" parent="1">
          <mxGeometry x="215" y="200" width="110" height="65" as="geometry" />
        </mxCell>
        <mxCell id="WNvSQ2MAyzaUWHc4iCk9-148" value="Realiza" style="text;html=1;align=center;verticalAlign=middle;whiteSpace=wrap;rounded=0;" vertex="1" parent="1">
          <mxGeometry x="240" y="217.5" width="60" height="30" as="geometry" />
        </mxCell>
        <mxCell id="WNvSQ2MAyzaUWHc4iCk9-149" value="" style="endArrow=none;html=1;exitX=1;exitY=0.5;exitDx=0;exitDy=0;" edge="1" parent="1" source="WNvSQ2MAyzaUWHc4iCk9-147">
          <mxGeometry width="50" height="50" relative="1" as="geometry">
            <mxPoint x="340" y="245" as="sourcePoint" />
            <mxPoint x="440" y="230" as="targetPoint" />
          </mxGeometry>
        </mxCell>
        <mxCell id="WNvSQ2MAyzaUWHc4iCk9-150" value="" style="endArrow=none;html=1;exitX=0.207;exitY=0.006;exitDx=0;exitDy=0;exitPerimeter=0;" edge="1" parent="1" source="WNvSQ2MAyzaUWHc4iCk9-89">
          <mxGeometry width="50" height="50" relative="1" as="geometry">
            <mxPoint x="438" y="417" as="sourcePoint" />
            <mxPoint x="440" y="230" as="targetPoint" />
          </mxGeometry>
        </mxCell>
        <mxCell id="WNvSQ2MAyzaUWHc4iCk9-151" value="Faz parte" style="rhombus;whiteSpace=wrap;html=1;" vertex="1" parent="1">
          <mxGeometry x="630" y="510" width="80" height="80" as="geometry" />
        </mxCell>
        <mxCell id="WNvSQ2MAyzaUWHc4iCk9-152" value="" style="endArrow=none;html=1;exitX=1;exitY=0.5;exitDx=0;exitDy=0;" edge="1" parent="1" source="WNvSQ2MAyzaUWHc4iCk9-84">
          <mxGeometry width="50" height="50" relative="1" as="geometry">
            <mxPoint x="690" y="330" as="sourcePoint" />
            <mxPoint x="760" y="330" as="targetPoint" />
          </mxGeometry>
        </mxCell>
        <mxCell id="WNvSQ2MAyzaUWHc4iCk9-153" value="" style="endArrow=none;html=1;" edge="1" parent="1">
          <mxGeometry width="50" height="50" relative="1" as="geometry">
            <mxPoint x="760" y="330" as="sourcePoint" />
            <mxPoint x="760" y="550" as="targetPoint" />
          </mxGeometry>
        </mxCell>
        <mxCell id="WNvSQ2MAyzaUWHc4iCk9-154" value="" style="endArrow=none;html=1;exitX=1;exitY=0.5;exitDx=0;exitDy=0;" edge="1" parent="1" source="WNvSQ2MAyzaUWHc4iCk9-151">
          <mxGeometry width="50" height="50" relative="1" as="geometry">
            <mxPoint x="710" y="595" as="sourcePoint" />
            <mxPoint x="760" y="550" as="targetPoint" />
          </mxGeometry>
        </mxCell>
        <mxCell id="WNvSQ2MAyzaUWHc4iCk9-155" value="" style="endArrow=none;html=1;" edge="1" parent="1">
          <mxGeometry width="50" height="50" relative="1" as="geometry">
            <mxPoint x="600" y="550" as="sourcePoint" />
            <mxPoint x="630" y="550" as="targetPoint" />
          </mxGeometry>
        </mxCell>
        <mxCell id="WNvSQ2MAyzaUWHc4iCk9-156" value="" style="endArrow=none;html=1;" edge="1" parent="1">
          <mxGeometry width="50" height="50" relative="1" as="geometry">
            <mxPoint x="600" y="550" as="sourcePoint" />
            <mxPoint x="600" y="490" as="targetPoint" />
          </mxGeometry>
        </mxCell>
        <mxCell id="WNvSQ2MAyzaUWHc4iCk9-157" value="" style="endArrow=none;html=1;" edge="1" parent="1">
          <mxGeometry width="50" height="50" relative="1" as="geometry">
            <mxPoint x="560" y="490" as="sourcePoint" />
            <mxPoint x="600" y="490" as="targetPoint" />
          </mxGeometry>
        </mxCell>
        <mxCell id="WNvSQ2MAyzaUWHc4iCk9-158" value="" style="endArrow=none;html=1;" edge="1" parent="1">
          <mxGeometry width="50" height="50" relative="1" as="geometry">
            <mxPoint x="534" y="450" as="sourcePoint" />
            <mxPoint x="560" y="450" as="targetPoint" />
          </mxGeometry>
        </mxCell>
        <mxCell id="WNvSQ2MAyzaUWHc4iCk9-159" value="" style="endArrow=none;html=1;" edge="1" parent="1">
          <mxGeometry width="50" height="50" relative="1" as="geometry">
            <mxPoint x="560" y="490" as="sourcePoint" />
            <mxPoint x="560" y="450" as="targetPoint" />
          </mxGeometry>
        </mxCell>
        <mxCell id="WNvSQ2MAyzaUWHc4iCk9-160" value="" style="endArrow=none;html=1;entryX=0;entryY=0.5;entryDx=0;entryDy=0;" edge="1" parent="1" target="WNvSQ2MAyzaUWHc4iCk9-147">
          <mxGeometry width="50" height="50" relative="1" as="geometry">
            <mxPoint x="120" y="230" as="sourcePoint" />
            <mxPoint x="215" y="235" as="targetPoint" />
          </mxGeometry>
        </mxCell>
        <mxCell id="WNvSQ2MAyzaUWHc4iCk9-161" value="" style="endArrow=none;html=1;" edge="1" parent="1">
          <mxGeometry width="50" height="50" relative="1" as="geometry">
            <mxPoint x="120" y="230" as="sourcePoint" />
            <mxPoint x="120" y="180" as="targetPoint" />
          </mxGeometry>
        </mxCell>
        <mxCell id="WNvSQ2MAyzaUWHc4iCk9-162" value="Faz" style="rhombus;whiteSpace=wrap;html=1;" vertex="1" parent="1">
          <mxGeometry x="280" y="545" width="80" height="55" as="geometry" />
        </mxCell>
        <mxCell id="WNvSQ2MAyzaUWHc4iCk9-164" value="" style="endArrow=none;html=1;" edge="1" parent="1">
          <mxGeometry width="50" height="50" relative="1" as="geometry">
            <mxPoint x="250" y="340" as="sourcePoint" />
            <mxPoint x="270" y="340" as="targetPoint" />
          </mxGeometry>
        </mxCell>
        <mxCell id="WNvSQ2MAyzaUWHc4iCk9-165" value="" style="endArrow=none;html=1;" edge="1" parent="1">
          <mxGeometry width="50" height="50" relative="1" as="geometry">
            <mxPoint x="250" y="580" as="sourcePoint" />
            <mxPoint x="250" y="340" as="targetPoint" />
          </mxGeometry>
        </mxCell>
        <mxCell id="WNvSQ2MAyzaUWHc4iCk9-166" value="" style="endArrow=none;html=1;" edge="1" parent="1">
          <mxGeometry width="50" height="50" relative="1" as="geometry">
            <mxPoint x="250" y="580" as="sourcePoint" />
            <mxPoint x="270" y="580" as="targetPoint" />
          </mxGeometry>
        </mxCell>
        <mxCell id="WNvSQ2MAyzaUWHc4iCk9-168" value="" style="endArrow=none;html=1;entryX=0;entryY=0.5;entryDx=0;entryDy=0;" edge="1" parent="1" target="WNvSQ2MAyzaUWHc4iCk9-162">
          <mxGeometry width="50" height="50" relative="1" as="geometry">
            <mxPoint x="270" y="580" as="sourcePoint" />
            <mxPoint x="285" y="570" as="targetPoint" />
          </mxGeometry>
        </mxCell>
        <mxCell id="WNvSQ2MAyzaUWHc4iCk9-169" value="" style="endArrow=none;html=1;exitX=1;exitY=0.5;exitDx=0;exitDy=0;" edge="1" parent="1" source="WNvSQ2MAyzaUWHc4iCk9-162">
          <mxGeometry width="50" height="50" relative="1" as="geometry">
            <mxPoint x="390" y="570" as="sourcePoint" />
            <mxPoint x="380" y="570" as="targetPoint" />
          </mxGeometry>
        </mxCell>
        <mxCell id="WNvSQ2MAyzaUWHc4iCk9-173" value="" style="endArrow=none;html=1;entryX=0.163;entryY=1.01;entryDx=0;entryDy=0;entryPerimeter=0;" edge="1" parent="1" target="WNvSQ2MAyzaUWHc4iCk9-89">
          <mxGeometry width="50" height="50" relative="1" as="geometry">
            <mxPoint x="380" y="570" as="sourcePoint" />
            <mxPoint x="440" y="520" as="targetPoint" />
            <Array as="points" />
          </mxGeometry>
        </mxCell>
        <mxCell id="WNvSQ2MAyzaUWHc4iCk9-174" value="" style="rhombus;whiteSpace=wrap;html=1;rotation=-90;direction=south;" vertex="1" parent="1">
          <mxGeometry x="605" y="640" width="75" height="50" as="geometry" />
        </mxCell>
        <mxCell id="WNvSQ2MAyzaUWHc4iCk9-177" value="" style="endArrow=none;html=1;" edge="1" parent="1">
          <mxGeometry width="50" height="50" relative="1" as="geometry">
            <mxPoint x="509.66" y="520" as="sourcePoint" />
            <mxPoint x="509.66" y="480" as="targetPoint" />
          </mxGeometry>
        </mxCell>
        <mxCell id="WNvSQ2MAyzaUWHc4iCk9-178" value="" style="endArrow=none;html=1;" edge="1" parent="1">
          <mxGeometry width="50" height="50" relative="1" as="geometry">
            <mxPoint x="510" y="520" as="sourcePoint" />
            <mxPoint x="570" y="520" as="targetPoint" />
          </mxGeometry>
        </mxCell>
        <mxCell id="WNvSQ2MAyzaUWHc4iCk9-179" value="" style="endArrow=none;html=1;" edge="1" parent="1">
          <mxGeometry width="50" height="50" relative="1" as="geometry">
            <mxPoint x="570" y="550" as="sourcePoint" />
            <mxPoint x="570" y="520" as="targetPoint" />
          </mxGeometry>
        </mxCell>
        <mxCell id="WNvSQ2MAyzaUWHc4iCk9-180" value="" style="endArrow=none;html=1;exitX=0.5;exitY=0;exitDx=0;exitDy=0;" edge="1" parent="1" source="WNvSQ2MAyzaUWHc4iCk9-174">
          <mxGeometry width="50" height="50" relative="1" as="geometry">
            <mxPoint x="520" y="600" as="sourcePoint" />
            <mxPoint x="570" y="550" as="targetPoint" />
          </mxGeometry>
        </mxCell>
        <mxCell id="WNvSQ2MAyzaUWHc4iCk9-182" value="Gera" style="text;html=1;align=center;verticalAlign=middle;whiteSpace=wrap;rounded=0;" vertex="1" parent="1">
          <mxGeometry x="612.5" y="650" width="60" height="30" as="geometry" />
        </mxCell>
        <mxCell id="WNvSQ2MAyzaUWHc4iCk9-183" value="" style="endArrow=none;html=1;" edge="1" parent="1">
          <mxGeometry width="50" height="50" relative="1" as="geometry">
            <mxPoint x="10" y="710" as="sourcePoint" />
            <mxPoint x="640" y="720" as="targetPoint" />
          </mxGeometry>
        </mxCell>
        <mxCell id="WNvSQ2MAyzaUWHc4iCk9-184" value="" style="endArrow=none;html=1;entryX=0.5;entryY=1;entryDx=0;entryDy=0;" edge="1" parent="1" target="WNvSQ2MAyzaUWHc4iCk9-174">
          <mxGeometry width="50" height="50" relative="1" as="geometry">
            <mxPoint x="640" y="720" as="sourcePoint" />
            <mxPoint x="642.16" y="700" as="targetPoint" />
          </mxGeometry>
        </mxCell>
        <mxCell id="WNvSQ2MAyzaUWHc4iCk9-185" value="" style="endArrow=none;html=1;" edge="1" parent="1">
          <mxGeometry width="50" height="50" relative="1" as="geometry">
            <mxPoint x="10" y="710" as="sourcePoint" />
            <mxPoint x="20" y="260" as="targetPoint" />
          </mxGeometry>
        </mxCell>
        <mxCell id="WNvSQ2MAyzaUWHc4iCk9-187" value="" style="endArrow=none;html=1;" edge="1" parent="1">
          <mxGeometry width="50" height="50" relative="1" as="geometry">
            <mxPoint x="20" y="259.5" as="sourcePoint" />
            <mxPoint x="80" y="259.5" as="targetPoint" />
          </mxGeometry>
        </mxCell>
        <mxCell id="WNvSQ2MAyzaUWHc4iCk9-188" value="" style="endArrow=none;html=1;exitX=0.25;exitY=0;exitDx=0;exitDy=0;" edge="1" parent="1" source="WNvSQ2MAyzaUWHc4iCk9-93">
          <mxGeometry width="50" height="50" relative="1" as="geometry">
            <mxPoint x="30" y="310" as="sourcePoint" />
            <mxPoint x="80" y="260" as="targetPoint" />
          </mxGeometry>
        </mxCell>
      </root>
    </mxGraphModel>
  </diagram>
</mxfile>
